<svg width="144" height="144" viewBox="0 0 144 144" fill="none" xmlns="http://www.w3.org/2000/svg">
<g clip-path="url(#clip0_2174_43688)">
<ellipse cx="72" cy="115.5" rx="45" ry="12.5" fill="url(#paint0_radial_2174_43688)"/>
<g opacity="0.8" filter="url(#filter0_f_2174_43688)">
<ellipse cx="72" cy="62" rx="51" ry="51" transform="rotate(90 72 62)" fill="url(#paint1_linear_2174_43688)"/>
</g>
<path d="M52.3704 98.4222C53.2842 96.5031 55.5464 95.6152 57.5821 96.2266C60.941 97.2355 66.2899 98.5 72 98.5C77.7101 98.5 83.059 97.2355 86.4179 96.2266C88.4536 95.6152 90.7158 96.5031 91.6296 98.4221L98.313 112.457C99.2499 114.425 98.4018 116.704 96.3049 117.297C92.1746 118.465 84.39 120 72 120C59.61 120 51.8254 118.465 47.6951 117.297C45.5982 116.704 44.7501 114.425 45.687 112.457L52.3704 98.4222Z" fill="url(#paint2_angular_2174_43688)"/>
<circle opacity="0.7" cx="72" cy="62" r="62" fill="url(#paint3_radial_2174_43688)"/>
<circle cx="72" cy="62" r="38" fill="url(#paint4_radial_2174_43688)"/>
<circle cx="72" cy="62" r="38" fill="url(#paint5_radial_2174_43688)"/>
<circle cx="72" cy="62" r="38" fill="url(#paint6_radial_2174_43688)"/>
<circle cx="72" cy="62" r="38" fill="url(#paint7_radial_2174_43688)" fill-opacity="0.4"/>
<path fill-rule="evenodd" clip-rule="evenodd" d="M94.9999 78C94.9999 81.2148 98.7607 83.2193 100.515 80.5252C103.984 75.1958 106 68.8333 106 62C106 43.2223 90.7776 28 71.9999 28C65.0358 28 58.5608 30.0937 53.1699 33.6861C51.1223 35.0505 52.5394 38 54.9999 38C77.0913 38 94.9999 55.9086 94.9999 78Z" fill="url(#paint8_radial_2174_43688)"/>
<path opacity="0.5" fill-rule="evenodd" clip-rule="evenodd" d="M81.3761 94.6907C82.3927 94.3997 82.0575 93 81 93C61.598 93 45.2688 79.8441 40.4461 61.9664C40.0462 60.484 38 60.4646 38 62C38 80.7777 53.2223 96 72 96C75.2522 96 78.3978 95.5434 81.3761 94.6907Z" fill="url(#paint9_radial_2174_43688)"/>
<circle opacity="0.5" cx="38.75" cy="54.75" r="1.75" fill="url(#paint10_radial_2174_43688)"/>
<circle opacity="0.91" cx="62.575" cy="78.575" r="1.575" fill="url(#paint11_radial_2174_43688)"/>
<circle opacity="0.3" cx="102.8" cy="31.8" r="1.8" fill="url(#paint12_radial_2174_43688)"/>
<circle cx="50.35" cy="66.35" r="2.35" fill="url(#paint13_radial_2174_43688)"/>
<circle cx="82.325" cy="67.325" r="2.325" fill="url(#paint14_radial_2174_43688)"/>
<circle opacity="0.8" cx="107.2" cy="77.2" r="2.2" fill="url(#paint15_radial_2174_43688)"/>
<circle cx="68.85" cy="50.85" r="1.85" fill="url(#paint16_radial_2174_43688)"/>
<circle opacity="0.8" cx="109.5" cy="89.5" r="1.5" fill="url(#paint17_radial_2174_43688)"/>
<circle opacity="0.6" cx="28" cy="42" r="1" fill="url(#paint18_radial_2174_43688)"/>
<circle opacity="0.5" cx="95.85" cy="61.85" r="1.85" fill="url(#paint19_radial_2174_43688)"/>
<circle opacity="0.5" cx="58.3022" cy="37.3022" r="3.30225" fill="url(#paint20_radial_2174_43688)"/>
<circle opacity="0.3" cx="51.618" cy="29.618" r="2.618" fill="url(#paint21_radial_2174_43688)"/>
<circle opacity="0.5" cx="104.886" cy="41.8857" r="2.88575" fill="url(#paint22_radial_2174_43688)"/>
<circle opacity="0.3" cx="32.785" cy="80.785" r="1.785" fill="url(#paint23_radial_2174_43688)"/>
<circle opacity="0.5" cx="85.0642" cy="86.0642" r="3.06425" fill="url(#paint24_radial_2174_43688)"/>
<circle opacity="0.5" cx="66.1718" cy="85.1718" r="2.17175" fill="url(#paint25_radial_2174_43688)"/>
<circle opacity="0.3" cx="47.5288" cy="91.5287" r="2.52875" fill="url(#paint26_radial_2174_43688)"/>
<circle opacity="0.3" cx="101.439" cy="98.4395" r="2.4395" fill="url(#paint27_radial_2174_43688)"/>
<path d="M49.6119 51.5522C49.7129 51.1482 50.2871 51.1482 50.3881 51.5522L50.9418 53.7672C50.9776 53.9105 51.0895 54.0224 51.2328 54.0582L53.4478 54.6119C53.8518 54.7129 53.8518 55.2871 53.4478 55.3881L51.2328 55.9418C51.0895 55.9776 50.9776 56.0895 50.9418 56.2328L50.3881 58.4478C50.2871 58.8518 49.7129 58.8518 49.6119 58.4478L49.0582 56.2328C49.0224 56.0895 48.9105 55.9776 48.7672 55.9418L46.5522 55.3881C46.1482 55.2871 46.1482 54.7129 46.5522 54.6119L48.7672 54.0582C48.9105 54.0224 49.0224 53.9105 49.0582 53.7672L49.6119 51.5522Z" fill="url(#paint28_radial_2174_43688)"/>
<path d="M83.6119 45.5522C83.7129 45.1482 84.2871 45.1482 84.3881 45.5522L85.5418 50.1672C85.5776 50.3105 85.6895 50.4224 85.8328 50.4582L90.4478 51.6119C90.8518 51.7129 90.8518 52.2871 90.4478 52.3881L85.8328 53.5418C85.6895 53.5776 85.5776 53.6895 85.5418 53.8328L84.3881 58.4478C84.2871 58.8518 83.7129 58.8518 83.6119 58.4478L82.4582 53.8328C82.4224 53.6895 82.3105 53.5776 82.1672 53.5418L77.5522 52.3881C77.1482 52.2871 77.1482 51.7129 77.5522 51.6119L82.1672 50.4582C82.3105 50.4224 82.4224 50.3105 82.4582 50.1672L83.6119 45.5522Z" fill="url(#paint29_radial_2174_43688)"/>
<path d="M77.6119 90.5522C77.7129 90.1482 78.2871 90.1482 78.3881 90.5522L78.5418 91.1672C78.5776 91.3105 78.6895 91.4224 78.8328 91.4582L79.4478 91.6119C79.8518 91.7129 79.8518 92.2871 79.4478 92.3881L78.8328 92.5418C78.6895 92.5776 78.5776 92.6895 78.5418 92.8328L78.3881 93.4478C78.2871 93.8518 77.7129 93.8518 77.6119 93.4478L77.4582 92.8328C77.4224 92.6895 77.3105 92.5776 77.1672 92.5418L76.5522 92.3881C76.1482 92.2871 76.1482 91.7129 76.5522 91.6119L77.1672 91.4582C77.3105 91.4224 77.4224 91.3105 77.4582 91.1672L77.6119 90.5522Z" fill="url(#paint30_radial_2174_43688)"/>
<path d="M116.612 52.5522C116.713 52.1482 117.287 52.1482 117.388 52.5522L117.542 53.1672C117.578 53.3105 117.69 53.4224 117.833 53.4582L118.448 53.6119C118.852 53.7129 118.852 54.2871 118.448 54.3881L117.833 54.5418C117.69 54.5776 117.578 54.6895 117.542 54.8328L117.388 55.4478C117.287 55.8518 116.713 55.8518 116.612 55.4478L116.458 54.8328C116.422 54.6895 116.31 54.5776 116.167 54.5418L115.552 54.3881C115.148 54.2871 115.148 53.7129 115.552 53.6119L116.167 53.4582C116.31 53.4224 116.422 53.3105 116.458 53.1672L116.612 52.5522Z" fill="url(#paint31_radial_2174_43688)"/>
<path opacity="0.7" d="M77.5149 37.9403C77.6412 37.4353 78.3588 37.4353 78.4851 37.9403L79.0545 40.2179C79.1441 40.5762 79.4238 40.856 79.7821 40.9455L82.0597 41.5149C82.5647 41.6412 82.5647 42.3588 82.0597 42.4851L79.7821 43.0545C79.4238 43.1441 79.1441 43.4238 79.0545 43.7821L78.4851 46.0597C78.3588 46.5647 77.6412 46.5647 77.5149 46.0597L76.9455 43.7821C76.856 43.4238 76.5762 43.1441 76.2179 43.0545L73.9403 42.4851C73.4353 42.3588 73.4353 41.6412 73.9403 41.5149L76.2179 40.9455C76.5762 40.856 76.856 40.5762 76.9455 40.2179L77.5149 37.9403Z" fill="url(#paint32_radial_2174_43688)"/>
<path opacity="0.3" d="M75.5149 69.9403C75.6412 69.4353 76.3588 69.4353 76.4851 69.9403L77.0545 72.2179C77.1441 72.5762 77.4238 72.856 77.7821 72.9455L80.0597 73.5149C80.5647 73.6412 80.5647 74.3588 80.0597 74.4851L77.7821 75.0545C77.4238 75.1441 77.1441 75.4238 77.0545 75.7821L76.4851 78.0597C76.3588 78.5647 75.6412 78.5647 75.5149 78.0597L74.9455 75.7821C74.856 75.4238 74.5762 75.1441 74.2179 75.0545L71.9403 74.4851C71.4353 74.3588 71.4353 73.6412 71.9403 73.5149L74.2179 72.9455C74.5762 72.856 74.856 72.5762 74.9455 72.2179L75.5149 69.9403Z" fill="url(#paint33_radial_2174_43688)"/>
</g>
<defs>
<filter id="filter0_f_2174_43688" x="5" y="-5" width="134" height="134" filterUnits="userSpaceOnUse" color-interpolation-filters="sRGB">
<feFlood flood-opacity="0" result="BackgroundImageFix"/>
<feBlend mode="normal" in="SourceGraphic" in2="BackgroundImageFix" result="shape"/>
<feGaussianBlur stdDeviation="8" result="effect1_foregroundBlur_2174_43688"/>
</filter>
<radialGradient id="paint0_radial_2174_43688" cx="0" cy="0" r="1" gradientUnits="userSpaceOnUse" gradientTransform="translate(72 115.567) rotate(-90) scale(12.5668 45.2406)">
<stop offset="0.457931" stop-color="#7D2889"/>
<stop offset="0.817328" stop-color="#A60A5E" stop-opacity="0.38"/>
<stop offset="1" stop-color="#7D2889" stop-opacity="0"/>
</radialGradient>
<linearGradient id="paint1_linear_2174_43688" x1="32.7049" y1="32.7906" x2="114.639" y2="86.7169" gradientUnits="userSpaceOnUse">
<stop stop-color="#E50914"/>
<stop offset="1" stop-color="#812BEF" stop-opacity="0.75"/>
</linearGradient>
<radialGradient id="paint2_angular_2174_43688" cx="0" cy="0" r="1" gradientUnits="userSpaceOnUse" gradientTransform="translate(72 71.5) rotate(-90) scale(66.5 134.008)">
<stop offset="0.433021" stop-color="#820006"/>
<stop offset="0.476162" stop-color="#FF66D9"/>
<stop offset="0.520949" stop-color="#730882"/>
<stop offset="0.557251" stop-color="#230018"/>
</radialGradient>
<radialGradient id="paint3_radial_2174_43688" cx="0" cy="0" r="1" gradientUnits="userSpaceOnUse" gradientTransform="translate(72 62.3315) rotate(-90) scale(62.3315)">
<stop offset="0.50667" stop-color="#F79292"/>
<stop offset="0.590897" stop-color="#FF66D9" stop-opacity="0.92"/>
<stop offset="0.767675" stop-color="#E50A80" stop-opacity="0.07"/>
<stop offset="1" stop-color="#42154C" stop-opacity="0"/>
</radialGradient>
<radialGradient id="paint4_radial_2174_43688" cx="0" cy="0" r="1" gradientUnits="userSpaceOnUse" gradientTransform="translate(82.5556 49.3333) rotate(90) scale(46.6667)">
<stop offset="0.452687" stop-color="#FF4E98"/>
<stop offset="0.775611" stop-color="#D51C53"/>
</radialGradient>
<radialGradient id="paint5_radial_2174_43688" cx="0" cy="0" r="1" gradientUnits="userSpaceOnUse" gradientTransform="translate(38 60.5) rotate(-18.1381) scale(61.0328)">
<stop stop-color="#BB1B42"/>
<stop offset="1" stop-color="#DF00FF" stop-opacity="0"/>
</radialGradient>
<radialGradient id="paint6_radial_2174_43688" cx="0" cy="0" r="1" gradientUnits="userSpaceOnUse" gradientTransform="translate(88 97) rotate(-116.906) scale(75.1332)">
<stop stop-color="#C1161E"/>
<stop offset="1" stop-color="#DF00FF" stop-opacity="0"/>
</radialGradient>
<radialGradient id="paint7_radial_2174_43688" cx="0" cy="0" r="1" gradientUnits="userSpaceOnUse" gradientTransform="translate(84 52.5) rotate(90) scale(42.5)">
<stop stop-color="white"/>
<stop offset="1" stop-color="white" stop-opacity="0"/>
</radialGradient>
<radialGradient id="paint8_radial_2174_43688" cx="0" cy="0" r="1" gradientUnits="userSpaceOnUse" gradientTransform="translate(65.4999 67) rotate(-48.9452) scale(41.1096 52.651)">
<stop offset="0.490503" stop-color="#FF66D9" stop-opacity="0"/>
<stop offset="1" stop-color="#FFC2D9" stop-opacity="0.84"/>
</radialGradient>
<radialGradient id="paint9_radial_2174_43688" cx="0" cy="0" r="1" gradientUnits="userSpaceOnUse" gradientTransform="translate(82 66) rotate(-62.387) scale(36.6776 47.6754)">
<stop offset="0.656703" stop-color="#FF66D9" stop-opacity="0"/>
<stop offset="1" stop-color="#FFC2D9" stop-opacity="0.84"/>
</radialGradient>
<radialGradient id="paint10_radial_2174_43688" cx="0" cy="0" r="1" gradientUnits="userSpaceOnUse" gradientTransform="translate(39.625 53.5833) rotate(135) scale(4.12479 4.01059)">
<stop stop-color="#FFC2D9" stop-opacity="0.58"/>
<stop offset="1" stop-color="#B272C1" stop-opacity="0"/>
</radialGradient>
<radialGradient id="paint11_radial_2174_43688" cx="0" cy="0" r="1" gradientUnits="userSpaceOnUse" gradientTransform="translate(63.3625 77.525) rotate(135) scale(3.71231 3.60953)">
<stop stop-color="#FFC2D9" stop-opacity="0.58"/>
<stop offset="1" stop-color="#B272C1" stop-opacity="0"/>
</radialGradient>
<radialGradient id="paint12_radial_2174_43688" cx="0" cy="0" r="1" gradientUnits="userSpaceOnUse" gradientTransform="translate(103.7 30.6) rotate(135) scale(4.24264 4.12518)">
<stop stop-color="#FFC2D9" stop-opacity="0.58"/>
<stop offset="1" stop-color="#B272C1" stop-opacity="0"/>
</radialGradient>
<radialGradient id="paint13_radial_2174_43688" cx="0" cy="0" r="1" gradientUnits="userSpaceOnUse" gradientTransform="translate(51.525 64.7833) rotate(135) scale(5.539 5.38565)">
<stop offset="0.259975" stop-color="#FFC2D9" stop-opacity="0.76"/>
<stop offset="1" stop-color="#B272C1" stop-opacity="0"/>
</radialGradient>
<radialGradient id="paint14_radial_2174_43688" cx="0" cy="0" r="1" gradientUnits="userSpaceOnUse" gradientTransform="translate(83.4875 65.775) rotate(135) scale(5.48008 5.32835)">
<stop offset="0.259975" stop-color="#FFC2D9" stop-opacity="0.76"/>
<stop offset="1" stop-color="#B272C1" stop-opacity="0"/>
</radialGradient>
<radialGradient id="paint15_radial_2174_43688" cx="0" cy="0" r="1" gradientUnits="userSpaceOnUse" gradientTransform="translate(108.3 75.7333) rotate(135) scale(5.18545 5.04188)">
<stop stop-color="#FFC2D9" stop-opacity="0.58"/>
<stop offset="1" stop-color="#B272C1" stop-opacity="0"/>
</radialGradient>
<radialGradient id="paint16_radial_2174_43688" cx="0" cy="0" r="1" gradientUnits="userSpaceOnUse" gradientTransform="translate(69.775 49.6167) rotate(135) scale(4.36049 4.23976)">
<stop offset="0.259975" stop-color="#FFC2D9" stop-opacity="0.76"/>
<stop offset="1" stop-color="#B272C1" stop-opacity="0"/>
</radialGradient>
<radialGradient id="paint17_radial_2174_43688" cx="0" cy="0" r="1" gradientUnits="userSpaceOnUse" gradientTransform="translate(110.25 88.5) rotate(135) scale(3.53553 3.43765)">
<stop offset="0.259975" stop-color="#FFC2D9" stop-opacity="0.76"/>
<stop offset="1" stop-color="#B272C1" stop-opacity="0"/>
</radialGradient>
<radialGradient id="paint18_radial_2174_43688" cx="0" cy="0" r="1" gradientUnits="userSpaceOnUse" gradientTransform="translate(28.5 41.3333) rotate(135) scale(2.35702 2.29176)">
<stop offset="0.259975" stop-color="#FFC2D9" stop-opacity="0.76"/>
<stop offset="1" stop-color="#B272C1" stop-opacity="0"/>
</radialGradient>
<radialGradient id="paint19_radial_2174_43688" cx="0" cy="0" r="1" gradientUnits="userSpaceOnUse" gradientTransform="translate(96.775 60.6167) rotate(135) scale(4.36049 4.23976)">
<stop stop-color="#FFC2D9" stop-opacity="0.58"/>
<stop offset="1" stop-color="#B272C1" stop-opacity="0"/>
</radialGradient>
<radialGradient id="paint20_radial_2174_43688" cx="0" cy="0" r="1" gradientUnits="userSpaceOnUse" gradientTransform="translate(59.9534 35.1007) rotate(135) scale(7.78348 7.56798)">
<stop stop-color="#FFC2D9" stop-opacity="0.58"/>
<stop offset="1" stop-color="#B272C1" stop-opacity="0"/>
</radialGradient>
<radialGradient id="paint21_radial_2174_43688" cx="0" cy="0" r="1" gradientUnits="userSpaceOnUse" gradientTransform="translate(52.927 27.8727) rotate(135) scale(6.17069 5.99984)">
<stop stop-color="#FFC2D9" stop-opacity="0.58"/>
<stop offset="1" stop-color="#B272C1" stop-opacity="0"/>
</radialGradient>
<radialGradient id="paint22_radial_2174_43688" cx="0" cy="0" r="1" gradientUnits="userSpaceOnUse" gradientTransform="translate(106.329 39.9619) rotate(135) scale(6.80178 6.61346)">
<stop stop-color="#FFC2D9" stop-opacity="0.58"/>
<stop offset="1" stop-color="#B272C1" stop-opacity="0"/>
</radialGradient>
<radialGradient id="paint23_radial_2174_43688" cx="0" cy="0" r="1" gradientUnits="userSpaceOnUse" gradientTransform="translate(33.6775 79.595) rotate(135) scale(4.20729 4.0908)">
<stop stop-color="#FFC2D9" stop-opacity="0.58"/>
<stop offset="1" stop-color="#B272C1" stop-opacity="0"/>
</radialGradient>
<radialGradient id="paint24_radial_2174_43688" cx="0" cy="0" r="1" gradientUnits="userSpaceOnUse" gradientTransform="translate(86.5964 84.0214) rotate(135) scale(7.22251 7.02254)">
<stop stop-color="#FFC2D9" stop-opacity="0.58"/>
<stop offset="1" stop-color="#B272C1" stop-opacity="0"/>
</radialGradient>
<radialGradient id="paint25_radial_2174_43688" cx="0" cy="0" r="1" gradientUnits="userSpaceOnUse" gradientTransform="translate(67.2576 83.7239) rotate(135) scale(5.11886 4.97714)">
<stop stop-color="#FFC2D9" stop-opacity="0.58"/>
<stop offset="1" stop-color="#B272C1" stop-opacity="0"/>
</radialGradient>
<radialGradient id="paint26_radial_2174_43688" cx="0" cy="0" r="1" gradientUnits="userSpaceOnUse" gradientTransform="translate(48.7931 89.8429) rotate(135) scale(5.96032 5.7953)">
<stop stop-color="#FFC2D9" stop-opacity="0.58"/>
<stop offset="1" stop-color="#B272C1" stop-opacity="0"/>
</radialGradient>
<radialGradient id="paint27_radial_2174_43688" cx="0" cy="0" r="1" gradientUnits="userSpaceOnUse" gradientTransform="translate(102.659 96.8132) rotate(135) scale(5.74996 5.59076)">
<stop stop-color="#FFC2D9" stop-opacity="0.58"/>
<stop offset="1" stop-color="#B272C1" stop-opacity="0"/>
</radialGradient>
<radialGradient id="paint28_radial_2174_43688" cx="0" cy="0" r="1" gradientUnits="userSpaceOnUse" gradientTransform="translate(50 55) rotate(90) scale(6.5 6.32004)">
<stop stop-color="#FFC2D9"/>
<stop offset="1" stop-color="#FF66D9" stop-opacity="0"/>
</radialGradient>
<radialGradient id="paint29_radial_2174_43688" cx="0" cy="0" r="1" gradientUnits="userSpaceOnUse" gradientTransform="translate(84 52) rotate(90) scale(10.4 10.1121)">
<stop stop-color="#FFE3EE"/>
<stop offset="1" stop-color="#FF66D9" stop-opacity="0"/>
</radialGradient>
<radialGradient id="paint30_radial_2174_43688" cx="0" cy="0" r="1" gradientUnits="userSpaceOnUse" gradientTransform="translate(78 92) rotate(90) scale(3.9 3.79202)">
<stop stop-color="#FFC2D9"/>
<stop offset="1" stop-color="#FF66D9" stop-opacity="0"/>
</radialGradient>
<radialGradient id="paint31_radial_2174_43688" cx="0" cy="0" r="1" gradientUnits="userSpaceOnUse" gradientTransform="translate(117 54) rotate(90) scale(3.9 3.79202)">
<stop stop-color="#FFC2D9" stop-opacity="0.76"/>
<stop offset="1" stop-color="#B272C1" stop-opacity="0"/>
</radialGradient>
<radialGradient id="paint32_radial_2174_43688" cx="0" cy="0" r="1" gradientUnits="userSpaceOnUse" gradientTransform="translate(78 42) rotate(90) scale(6.28572)">
<stop stop-color="white"/>
<stop offset="0.515189" stop-color="#FFF3DC" stop-opacity="0.8"/>
<stop offset="1" stop-color="#FF66D9" stop-opacity="0.22"/>
</radialGradient>
<radialGradient id="paint33_radial_2174_43688" cx="0" cy="0" r="1" gradientUnits="userSpaceOnUse" gradientTransform="translate(76 74) rotate(90) scale(6.28572)">
<stop stop-color="white"/>
<stop offset="0.515189" stop-color="#FFF3DC" stop-opacity="0.8"/>
<stop offset="1" stop-color="#FF66D9" stop-opacity="0.22"/>
</radialGradient>
<clipPath id="clip0_2174_43688">
<rect width="144" height="144" fill="white"/>
</clipPath>
</defs>
</svg>
