<svg width="128" height="128" viewBox="0 0 128 128" fill="none" xmlns="http://www.w3.org/2000/svg">
<ellipse cx="64.5" cy="64" rx="62.5" ry="64" fill="url(#paint0_radial_2706_4062)"/>
<ellipse cx="64" cy="116" rx="64" ry="7" fill="url(#paint1_radial_2706_4062)"/>
<circle cx="41" cy="41" r="41" transform="matrix(0.999229 0.0392598 0.0495471 0.998772 19 23)" fill="#59216E"/>
<circle cx="41" cy="41" r="41" transform="matrix(0.999229 0.0392598 0.0495471 0.998772 19 23)" fill="url(#paint2_radial_2706_4062)"/>
<circle cx="41" cy="41" r="41" transform="matrix(0.999229 0.0392598 0.0495471 0.998772 19 23)" fill="url(#paint3_radial_2706_4062)" fill-opacity="0.8"/>
<circle cx="41" cy="41" r="41" transform="matrix(0.999229 0.0392598 0.0495471 0.998772 19 23)" fill="url(#paint4_radial_2706_4062)"/>
<circle cx="41" cy="41" r="41" transform="matrix(0.999229 0.0392598 0.0495471 0.998772 21 21)" fill="white" fill-opacity="0.7"/>
<circle cx="41" cy="41" r="41" transform="matrix(0.999229 0.0392598 0.0495471 0.998772 21 21)" fill="url(#paint5_radial_2706_4062)"/>
<circle cx="41" cy="41" r="41" transform="matrix(0.999229 0.0392598 0.0495471 0.998772 21 21)" fill="url(#paint6_radial_2706_4062)" fill-opacity="0.8"/>
<circle cx="41" cy="41" r="41" transform="matrix(0.999229 0.0392598 0.0495471 0.998772 21 21)" fill="url(#paint7_radial_2706_4062)"/>
<g filter="url(#filter0_f_2706_4062)">
<path fill-rule="evenodd" clip-rule="evenodd" d="M70.7554 71.1995L79.813 63.0673L86.9124 70.7178L70.2745 85.6558L67.3158 88.3123L63.8726 85.6558L44.5105 70.7178L50.2148 63.0673L60.7554 71.1995L58.0017 41H68.0017L70.7554 71.1995Z" fill="url(#paint8_radial_2706_4062)"/>
<path fill-rule="evenodd" clip-rule="evenodd" d="M70.7554 71.1995L79.813 63.0673L86.9124 70.7178L70.2745 85.6558L67.3158 88.3123L63.8726 85.6558L44.5105 70.7178L50.2148 63.0673L60.7554 71.1995L58.0017 41H68.0017L70.7554 71.1995Z" fill="url(#paint9_radial_2706_4062)"/>
<path fill-rule="evenodd" clip-rule="evenodd" d="M70.7554 71.1995L79.813 63.0673L86.9124 70.7178L70.2745 85.6558L67.3158 88.3123L63.8726 85.6558L44.5105 70.7178L50.2148 63.0673L60.7554 71.1995L58.0017 41H68.0017L70.7554 71.1995Z" fill="url(#paint10_radial_2706_4062)"/>
</g>
<path fill-rule="evenodd" clip-rule="evenodd" d="M69.1401 75.4519L81.2298 64.5974L85.4895 69.1877L68.8516 84.1258L67.0764 85.7196L65.0105 84.1258L45.6484 69.1877L49.0709 64.5974L63.1401 75.4519L59.9987 41H65.9987L69.1401 75.4519Z" fill="url(#paint11_radial_2706_4062)"/>
<path fill-rule="evenodd" clip-rule="evenodd" d="M69.1401 75.4519L81.2298 64.5974L85.4895 69.1877L68.8516 84.1258L67.0764 85.7196L65.0105 84.1258L45.6484 69.1877L49.0709 64.5974L63.1401 75.4519L59.9987 41H65.9987L69.1401 75.4519Z" fill="url(#paint12_radial_2706_4062)"/>
<path fill-rule="evenodd" clip-rule="evenodd" d="M69.1401 75.4519L81.2298 64.5974L85.4895 69.1877L68.8516 84.1258L67.0764 85.7196L65.0105 84.1258L45.6484 69.1877L49.0709 64.5974L63.1401 75.4519L59.9987 41H65.9987L69.1401 75.4519Z" fill="url(#paint13_radial_2706_4062)"/>
<defs>
<filter id="filter0_f_2706_4062" x="36.5117" y="33" width="58.4023" height="63.3123" filterUnits="userSpaceOnUse" color-interpolation-filters="sRGB">
<feFlood flood-opacity="0" result="BackgroundImageFix"/>
<feBlend mode="normal" in="SourceGraphic" in2="BackgroundImageFix" result="shape"/>
<feGaussianBlur stdDeviation="4" result="effect1_foregroundBlur_2706_4062"/>
</filter>
<radialGradient id="paint0_radial_2706_4062" cx="0" cy="0" r="1" gradientUnits="userSpaceOnUse" gradientTransform="translate(64.5 64.3422) rotate(-90) scale(64.3422 62.8342)">
<stop stop-color="#FFBB8D"/>
<stop offset="0.618063" stop-color="#FF7A3A"/>
<stop offset="0.757218" stop-color="#C41573" stop-opacity="0.34"/>
<stop offset="0.886367" stop-color="#7D2889" stop-opacity="0.19"/>
<stop offset="1" stop-color="#42154C" stop-opacity="0"/>
</radialGradient>
<radialGradient id="paint1_radial_2706_4062" cx="0" cy="0" r="1" gradientUnits="userSpaceOnUse" gradientTransform="translate(64 116.037) rotate(-90) scale(7.03743 64.3422)">
<stop stop-color="#D3317A"/>
<stop offset="0.5" stop-color="#7D2889" stop-opacity="0.19"/>
<stop offset="1" stop-color="#42154C" stop-opacity="0"/>
</radialGradient>
<radialGradient id="paint2_radial_2706_4062" cx="0" cy="0" r="1" gradientUnits="userSpaceOnUse" gradientTransform="translate(8.5 70) rotate(-34.7386) scale(83.3577)">
<stop stop-color="#D317FF"/>
<stop offset="0.514329" stop-color="#BD34DD" stop-opacity="0.5"/>
<stop offset="1" stop-color="#E469FF" stop-opacity="0.07"/>
</radialGradient>
<radialGradient id="paint3_radial_2706_4062" cx="0" cy="0" r="1" gradientUnits="userSpaceOnUse" gradientTransform="translate(4.44945 31.3638) rotate(38.5377) scale(74.8539 75.7429)">
<stop stop-color="#FF8145"/>
<stop offset="0.458794" stop-color="#FF9360" stop-opacity="0.56"/>
<stop offset="1" stop-color="#FF53EE" stop-opacity="0.07"/>
</radialGradient>
<radialGradient id="paint4_radial_2706_4062" cx="0" cy="0" r="1" gradientUnits="userSpaceOnUse" gradientTransform="translate(79.5 59) rotate(-159.26) scale(65.6373)">
<stop stop-color="#F276AE"/>
<stop offset="0.333333" stop-color="#F276AE" stop-opacity="0.76"/>
<stop offset="0.666667" stop-color="#F44484" stop-opacity="0.07"/>
<stop offset="1" stop-color="#660914" stop-opacity="0"/>
</radialGradient>
<radialGradient id="paint5_radial_2706_4062" cx="0" cy="0" r="1" gradientUnits="userSpaceOnUse" gradientTransform="translate(8.5 70) rotate(-34.7386) scale(83.3577)">
<stop stop-color="#DF89FF"/>
<stop offset="1" stop-color="#E469FF" stop-opacity="0.07"/>
</radialGradient>
<radialGradient id="paint6_radial_2706_4062" cx="0" cy="0" r="1" gradientUnits="userSpaceOnUse" gradientTransform="translate(22.8837 2.86046) rotate(61.9027) scale(85.1778)">
<stop stop-color="#FF8145"/>
<stop offset="0.458794" stop-color="#FF7E41" stop-opacity="0.56"/>
<stop offset="1" stop-color="#FF53EE" stop-opacity="0.07"/>
</radialGradient>
<radialGradient id="paint7_radial_2706_4062" cx="0" cy="0" r="1" gradientUnits="userSpaceOnUse" gradientTransform="translate(69.1659 68.3685) rotate(-134.956) scale(76.2401 78.3972)">
<stop stop-color="#F276AE"/>
<stop offset="0.333333" stop-color="#F276AE" stop-opacity="0.76"/>
<stop offset="0.666667" stop-color="#F44484" stop-opacity="0.07"/>
<stop offset="1" stop-color="#FF6779" stop-opacity="0"/>
</radialGradient>
<radialGradient id="paint8_radial_2706_4062" cx="0" cy="0" r="1" gradientUnits="userSpaceOnUse" gradientTransform="translate(84.5007 74.0086) rotate(-158.517) scale(33.7991 34.4161)">
<stop stop-color="#FBA0F2"/>
<stop offset="0.697917" stop-color="#FFBBBB" stop-opacity="0.74"/>
<stop offset="1" stop-color="#E165FD" stop-opacity="0.07"/>
</radialGradient>
<radialGradient id="paint9_radial_2706_4062" cx="0" cy="0" r="1" gradientUnits="userSpaceOnUse" gradientTransform="translate(44.9289 71.9242) rotate(22.901) scale(32.2174 33.6786)">
<stop stop-color="#F2BCFF"/>
<stop offset="1" stop-color="#E5C7FF" stop-opacity="0"/>
</radialGradient>
<radialGradient id="paint10_radial_2706_4062" cx="0" cy="0" r="1" gradientUnits="userSpaceOnUse" gradientTransform="translate(57.9433 51.8506) rotate(41.675) scale(44.0614 36.9435)">
<stop stop-color="#FFA379"/>
<stop offset="0.333333" stop-color="#FFBCC7" stop-opacity="0.85"/>
<stop offset="1" stop-color="#FFD1D1" stop-opacity="0"/>
</radialGradient>
<radialGradient id="paint11_radial_2706_4062" cx="0" cy="0" r="1" gradientUnits="userSpaceOnUse" gradientTransform="translate(83.2161 72.1997) rotate(-158.405) scale(31.7892 32.4981)">
<stop stop-color="#A60A5E"/>
<stop offset="0.697917" stop-color="#FF66D9"/>
<stop offset="1" stop-color="#7D2889"/>
</radialGradient>
<radialGradient id="paint12_radial_2706_4062" cx="0" cy="0" r="1" gradientUnits="userSpaceOnUse" gradientTransform="translate(46.0331 70.2296) rotate(23.0185) scale(30.3049 31.7982)">
<stop stop-color="#9A00BE"/>
<stop offset="1" stop-color="#7D2889" stop-opacity="0.38"/>
</radialGradient>
<radialGradient id="paint13_radial_2706_4062" cx="0" cy="0" r="1" gradientUnits="userSpaceOnUse" gradientTransform="translate(53.9987 53.5) rotate(41.4965) scale(52.0697 43.8726)">
<stop stop-color="#FF661D"/>
<stop offset="0.5" stop-color="#AD005D" stop-opacity="0.62"/>
<stop offset="1" stop-color="#67004D" stop-opacity="0"/>
</radialGradient>
</defs>
</svg>
