<svg width="144" height="145" viewBox="0 0 144 145" fill="none" xmlns="http://www.w3.org/2000/svg">
<ellipse cx="72" cy="112.909" rx="61" ry="11" fill="url(#paint0_radial_2308_4743)"/>
<ellipse cx="72" cy="52.4092" rx="61" ry="48.5" fill="url(#paint1_radial_2308_4743)"/>
<path fill-rule="evenodd" clip-rule="evenodd" d="M106.79 99.0143C106.925 98.6723 107 98.2994 107 97.9092C107 96.2523 105.657 94.9092 104 94.9092C102.343 94.9092 101 96.2523 101 97.9092C101 99.2926 101.936 100.457 103.21 100.804C103.132 101.001 103.074 101.207 103.039 101.422C101.822 102.108 101 103.412 101 104.909C101 107.118 102.791 108.909 105 108.909C105.739 108.909 106.431 108.709 107.025 108.359C107.249 110.357 108.943 111.909 111 111.909C111.85 111.909 112.639 111.644 113.287 111.191C113.768 112.207 114.802 112.909 116 112.909C117.657 112.909 119 111.566 119 109.909C119 108.992 118.589 108.171 117.94 107.621C118.598 106.908 119 105.956 119 104.909C119 102.7 117.209 100.909 115 100.909C113.954 100.909 113.001 101.311 112.288 101.969C111.738 101.321 110.917 100.909 110 100.909C109.61 100.909 109.237 100.984 108.895 101.119C108.617 100.097 107.812 99.2925 106.79 99.0143ZM42 100.909C42 101.313 41.9401 101.703 41.8287 102.071C44.2244 102.665 46 104.83 46 107.409C46 110.447 43.5376 112.909 40.5 112.909C39.4737 112.909 38.5131 112.628 37.691 112.139C37.0912 112.621 36.3293 112.909 35.5 112.909C34.8716 112.909 34.2818 112.744 33.7721 112.454C33.3765 113.313 32.5079 113.909 31.5 113.909C30.2284 113.909 29.1785 112.96 29.0205 111.731C28.702 111.846 28.3583 111.909 28 111.909C26.3431 111.909 25 110.566 25 108.909C25 107.252 26.3431 105.909 28 105.909C28.352 105.909 28.6898 105.97 29.0036 106.081C29.0012 106.024 29 105.967 29 105.909C29 103.7 30.7909 101.909 33 101.909C33.4091 101.909 33.8038 101.971 34.1755 102.085C34.0614 101.713 34 101.318 34 100.909C34 98.7 35.7909 96.9092 38 96.9092C40.2091 96.9092 42 98.7 42 100.909Z" fill="url(#paint2_radial_2308_4743)"/>
<path fill-rule="evenodd" clip-rule="evenodd" d="M77 28.9092C77 29.4021 76.9108 29.8742 76.7478 30.3102C77.0451 30.4549 77.3219 30.6354 77.5725 30.846C78.2726 29.6853 79.5457 28.9092 81 28.9092C81.1749 28.9092 81.3472 28.9204 81.5162 28.9422C82.203 27.7284 83.5058 26.9092 85 26.9092C87.2091 26.9092 89 28.7 89 30.9092C89 30.9512 88.9994 30.993 88.9981 31.0347C90.0607 31.3076 90.9526 32.0062 91.4813 32.9378C92.5016 33.0602 93.4038 33.5666 94.0391 34.3083C94.6412 34.0514 95.304 33.9092 96 33.9092C98.7614 33.9092 101 36.1478 101 38.9092C101 39.8932 100.716 40.8109 100.225 41.5845C100.928 42.0562 101.474 42.7454 101.765 43.5558C102.493 42.5578 103.671 41.9092 105 41.9092C107.209 41.9092 109 43.7 109 45.9092C109 46.6481 108.8 47.3403 108.45 47.9342C110.447 48.158 112 49.8523 112 51.9092C112 54.1183 110.209 55.9092 108 55.9092C106.519 55.9092 105.227 55.1048 104.535 53.9092H54H42V52.3741C41.4117 52.7144 40.7286 52.9092 40 52.9092C37.7909 52.9092 36 51.1183 36 48.9092C36 48.2232 36.1727 47.5775 36.477 47.0133C35.5757 46.2798 35 45.1617 35 43.9092C35 41.7 36.7909 39.9092 39 39.9092C39.686 39.9092 40.3317 40.0819 40.8959 40.3862C41.6294 39.4849 42.7474 38.9092 44 38.9092C44 36.7 45.7909 34.9092 48 34.9092C48.1749 34.9092 48.3472 34.9204 48.5162 34.9422C49.203 33.7284 50.5059 32.9092 52 32.9092C52.1893 32.9092 52.3755 32.9223 52.5577 32.9478C52.2034 32.3508 52 31.6537 52 30.9092C52 28.7 53.7909 26.9092 56 26.9092C57.0221 26.9092 57.9546 27.2925 58.6617 27.9233C58.7732 27.9139 58.8861 27.9092 59 27.9092C60.7448 27.9092 62.2287 29.0263 62.7754 30.5844C63.2856 30.2423 63.879 30.0146 64.5187 29.9378C65.2062 28.7264 66.5076 27.9092 68 27.9092C68.378 27.9092 68.7438 27.9616 69.0904 28.0596C69.4799 26.2586 71.0824 24.9092 73 24.9092C75.2091 24.9092 77 26.7 77 28.9092Z" fill="url(#paint3_radial_2308_4743)"/>
<circle opacity="0.6" cx="69.5" cy="40.4092" r="9.5" fill="url(#paint4_radial_2308_4743)"/>
<circle opacity="0.6" cx="66.5" cy="37.4092" r="6.5" fill="url(#paint5_radial_2308_4743)"/>
<circle opacity="0.6" cx="64.5" cy="42.4092" r="6.5" fill="url(#paint6_radial_2308_4743)"/>
<circle opacity="0.6" cx="45.5" cy="45.4092" r="6.5" fill="url(#paint7_radial_2308_4743)"/>
<circle opacity="0.6" cx="49.5" cy="42.4092" r="6.5" fill="url(#paint8_radial_2308_4743)"/>
<circle opacity="0.6" cx="49.5" cy="47.4092" r="3.5" fill="url(#paint9_radial_2308_4743)"/>
<circle opacity="0.2" cx="104.5" cy="45.4092" r="3.5" fill="url(#paint10_radial_2308_4743)"/>
<circle opacity="0.2" cx="108.5" cy="50.4092" r="2.5" fill="url(#paint11_radial_2308_4743)"/>
<circle opacity="0.3" cx="103.5" cy="49.4092" r="4.5" fill="url(#paint12_radial_2308_4743)"/>
<circle opacity="0.2" cx="85.5" cy="30.4092" r="3.5" fill="url(#paint13_radial_2308_4743)"/>
<circle opacity="0.2" cx="72.5" cy="27.4092" r="2.5" fill="url(#paint14_radial_2308_4743)"/>
<circle opacity="0.2" cx="55.5" cy="30.4092" r="2.5" fill="url(#paint15_radial_2308_4743)"/>
<circle opacity="0.2" cx="89.5" cy="38.4092" r="6.5" fill="url(#paint16_radial_2308_4743)"/>
<circle opacity="0.6" cx="83.5" cy="36.4092" r="6.5" fill="url(#paint17_radial_2308_4743)"/>
<circle opacity="0.2" cx="86.5" cy="39.4092" r="6.5" fill="url(#paint18_radial_2308_4743)"/>
<path d="M35 49.9092H92L87 115.909H39L35 49.9092Z" fill="url(#paint19_linear_2308_4743)"/>
<path d="M102 111.909L87 115.909L92 49.9092L111 54.9092L102 111.909Z" fill="url(#paint20_linear_2308_4743)"/>
<path fill-rule="evenodd" clip-rule="evenodd" d="M69.8769 63.0611L70.201 49.9092H58.2712L58.4034 62.4139C56.2898 62.8858 54.2964 63.6764 52.4762 64.7325L52.0587 49.9092H40.1055L43.8238 115.909H53.9178L53.5162 101.651C55.1753 102.492 56.9611 103.119 58.8375 103.497L58.9686 115.909H68.5746L68.8909 103.072C70.5411 102.59 72.1073 101.912 73.5623 101.064L73.0919 115.909H83.6685L87.1513 49.9092H75.1834L74.6906 65.4615C73.2088 64.4667 71.5934 63.6557 69.8769 63.0611ZM90.3098 115.027L94.0594 114.027L101.487 52.4058L95.7662 50.9003L90.3098 115.027ZM96.1935 113.458L99.1376 112.673L109.101 54.4093L103.539 52.9458L96.1935 113.458ZM79.0001 82.9092C79.0001 91.7457 71.8366 98.9092 63.0001 98.9092C54.1635 98.9092 47.0001 91.7457 47.0001 82.9092C47.0001 74.0726 54.1635 66.9092 63.0001 66.9092C71.8366 66.9092 79.0001 74.0726 79.0001 82.9092ZM69.8855 91.5441L67.7297 84.5737L72.9498 80.7024C73.3183 80.4291 73.1547 79.8475 72.6974 79.8104C70.5441 79.6357 68.3448 79.5181 66.1082 79.4614L63.47 72.2022C63.3105 71.7633 62.6897 71.7633 62.5301 72.2022L59.892 79.4614C57.6553 79.5181 55.4561 79.6357 53.3027 79.8104C52.8454 79.8475 52.6818 80.4291 53.0504 80.7024L58.2705 84.5737L56.1146 91.5441C55.9749 91.996 56.4826 92.3713 56.8736 92.1051L63.0001 87.935L69.1265 92.1051C69.5175 92.3713 70.0253 91.996 69.8855 91.5441Z" fill="url(#paint21_linear_2308_4743)"/>
<circle opacity="0.4" cx="32.5" cy="105.409" r="2.5" fill="url(#paint22_radial_2308_4743)"/>
<circle opacity="0.4" cx="28.5" cy="108.409" r="2.5" fill="url(#paint23_radial_2308_4743)"/>
<circle opacity="0.4" cx="31.5" cy="108.409" r="2.5" fill="url(#paint24_radial_2308_4743)"/>
<circle opacity="0.4" cx="35.5" cy="110.409" r="2.5" fill="url(#paint25_radial_2308_4743)"/>
<circle opacity="0.4" cx="115.5" cy="109.409" r="2.5" fill="url(#paint26_radial_2308_4743)"/>
<circle opacity="0.4" cx="115" cy="104.909" r="3" fill="url(#paint27_radial_2308_4743)"/>
<circle opacity="0.4" cx="110" cy="104.909" r="3" fill="url(#paint28_radial_2308_4743)"/>
<circle opacity="0.4" cx="106.5" cy="103.409" r="3.5" fill="url(#paint29_radial_2308_4743)"/>
<circle opacity="0.4" cx="34.5" cy="107.409" r="3.5" fill="url(#paint30_radial_2308_4743)"/>
<path fill-rule="evenodd" clip-rule="evenodd" d="M105 103.909C106.657 103.909 108 105.252 108 106.909C110.209 106.909 112 108.7 112 110.909C112 113.118 110.209 114.909 108 114.909C107.611 114.909 107.236 114.854 106.88 114.75C106.517 115.998 105.365 116.909 104 116.909C102.343 116.909 101 115.566 101 113.909C101 113.798 101.006 113.689 101.018 113.581C99.8257 113.023 99 111.812 99 110.409C99 108.646 100.304 107.187 102 106.945L102 106.909C102 105.252 103.343 103.909 105 103.909Z" fill="url(#paint31_radial_2308_4743)"/>
<defs>
<radialGradient id="paint0_radial_2308_4743" cx="0" cy="0" r="1" gradientUnits="userSpaceOnUse" gradientTransform="translate(72 112.968) rotate(-90) scale(11.0588 61.3262)">
<stop offset="0.489583" stop-color="#7D2889"/>
<stop offset="0.828125" stop-color="#A60A5E" stop-opacity="0.38"/>
<stop offset="1" stop-color="#7D2889" stop-opacity="0"/>
</radialGradient>
<radialGradient id="paint1_radial_2308_4743" cx="0" cy="0" r="1" gradientUnits="userSpaceOnUse" gradientTransform="translate(72 52.6685) rotate(-90) scale(48.7594 61.3262)">
<stop offset="0.253275" stop-color="#FFBB8D"/>
<stop offset="0.455002" stop-color="#FF661D" stop-opacity="0.91"/>
<stop offset="0.667935" stop-color="#7D2889" stop-opacity="0.53"/>
<stop offset="1" stop-color="#42154C" stop-opacity="0"/>
</radialGradient>
<radialGradient id="paint2_radial_2308_4743" cx="0" cy="0" r="1" gradientUnits="userSpaceOnUse" gradientTransform="translate(70.5 103.909) rotate(180) scale(48)">
<stop offset="0.432292" stop-color="#FF8B54"/>
<stop offset="0.760417" stop-color="#FFBB8D"/>
<stop offset="1" stop-color="#F9DDD1"/>
</radialGradient>
<radialGradient id="paint3_radial_2308_4743" cx="0" cy="0" r="1" gradientUnits="userSpaceOnUse" gradientTransform="translate(71.5 36.9092) rotate(-90) scale(15 71.1523)">
<stop offset="0.302326" stop-color="#F9DDD1"/>
<stop offset="0.674419" stop-color="#FFBB8D"/>
<stop offset="1" stop-color="#FF8B54"/>
</radialGradient>
<radialGradient id="paint4_radial_2308_4743" cx="0" cy="0" r="1" gradientUnits="userSpaceOnUse" gradientTransform="translate(69.5 40.968) rotate(90) scale(8.94118)">
<stop offset="0.375" stop-color="#FFF4EB"/>
<stop offset="1" stop-color="#FFF3EB" stop-opacity="0"/>
</radialGradient>
<radialGradient id="paint5_radial_2308_4743" cx="0" cy="0" r="1" gradientUnits="userSpaceOnUse" gradientTransform="translate(66.5 37.7915) rotate(90) scale(6.11765)">
<stop offset="0.375" stop-color="#FFF4EB"/>
<stop offset="1" stop-color="#FFF3EB" stop-opacity="0"/>
</radialGradient>
<radialGradient id="paint6_radial_2308_4743" cx="0" cy="0" r="1" gradientUnits="userSpaceOnUse" gradientTransform="translate(64.5 42.7915) rotate(90) scale(6.11765)">
<stop offset="0.375" stop-color="#FFF4EB"/>
<stop offset="1" stop-color="#FFF3EB" stop-opacity="0"/>
</radialGradient>
<radialGradient id="paint7_radial_2308_4743" cx="0" cy="0" r="1" gradientUnits="userSpaceOnUse" gradientTransform="translate(45.5 45.7915) rotate(90) scale(6.11765)">
<stop offset="0.375" stop-color="#FFF4EB"/>
<stop offset="1" stop-color="#FFF3EB" stop-opacity="0"/>
</radialGradient>
<radialGradient id="paint8_radial_2308_4743" cx="0" cy="0" r="1" gradientUnits="userSpaceOnUse" gradientTransform="translate(49.5 42.7915) rotate(90) scale(6.11765)">
<stop offset="0.375" stop-color="#FFF4EB"/>
<stop offset="1" stop-color="#FFF3EB" stop-opacity="0"/>
</radialGradient>
<radialGradient id="paint9_radial_2308_4743" cx="0" cy="0" r="1" gradientUnits="userSpaceOnUse" gradientTransform="translate(49.5 47.6151) rotate(90) scale(3.29412)">
<stop offset="0.375" stop-color="#FFF4EB"/>
<stop offset="1" stop-color="#FFF3EB" stop-opacity="0"/>
</radialGradient>
<radialGradient id="paint10_radial_2308_4743" cx="0" cy="0" r="1" gradientUnits="userSpaceOnUse" gradientTransform="translate(104.5 45.6151) rotate(90) scale(3.29412)">
<stop offset="0.375" stop-color="#FFF4EB"/>
<stop offset="1" stop-color="#FFF3EB" stop-opacity="0"/>
</radialGradient>
<radialGradient id="paint11_radial_2308_4743" cx="0" cy="0" r="1" gradientUnits="userSpaceOnUse" gradientTransform="translate(108.5 50.5562) rotate(90) scale(2.35294)">
<stop offset="0.375" stop-color="#FFF4EB"/>
<stop offset="1" stop-color="#FFF3EB" stop-opacity="0"/>
</radialGradient>
<radialGradient id="paint12_radial_2308_4743" cx="0" cy="0" r="1" gradientUnits="userSpaceOnUse" gradientTransform="translate(103.5 49.6739) rotate(90) scale(4.23529)">
<stop offset="0.375" stop-color="#FFF4EB"/>
<stop offset="1" stop-color="#FFF3EB" stop-opacity="0"/>
</radialGradient>
<radialGradient id="paint13_radial_2308_4743" cx="0" cy="0" r="1" gradientUnits="userSpaceOnUse" gradientTransform="translate(85.5 30.6151) rotate(90) scale(3.29412)">
<stop offset="0.375" stop-color="#FFF4EB"/>
<stop offset="1" stop-color="#FFF3EB" stop-opacity="0"/>
</radialGradient>
<radialGradient id="paint14_radial_2308_4743" cx="0" cy="0" r="1" gradientUnits="userSpaceOnUse" gradientTransform="translate(72.5 27.5562) rotate(90) scale(2.35294)">
<stop offset="0.375" stop-color="#FFF4EB"/>
<stop offset="1" stop-color="#FFF3EB" stop-opacity="0"/>
</radialGradient>
<radialGradient id="paint15_radial_2308_4743" cx="0" cy="0" r="1" gradientUnits="userSpaceOnUse" gradientTransform="translate(55.5 30.5562) rotate(90) scale(2.35294)">
<stop offset="0.375" stop-color="#FFF4EB"/>
<stop offset="1" stop-color="#FFF3EB" stop-opacity="0"/>
</radialGradient>
<radialGradient id="paint16_radial_2308_4743" cx="0" cy="0" r="1" gradientUnits="userSpaceOnUse" gradientTransform="translate(89.5 38.7915) rotate(90) scale(6.11765)">
<stop offset="0.375" stop-color="#FFF4EB"/>
<stop offset="1" stop-color="#FFF3EB" stop-opacity="0"/>
</radialGradient>
<radialGradient id="paint17_radial_2308_4743" cx="0" cy="0" r="1" gradientUnits="userSpaceOnUse" gradientTransform="translate(83.5 36.7915) rotate(90) scale(6.11765)">
<stop offset="0.375" stop-color="#FFF4EB"/>
<stop offset="1" stop-color="#FFF3EB" stop-opacity="0"/>
</radialGradient>
<radialGradient id="paint18_radial_2308_4743" cx="0" cy="0" r="1" gradientUnits="userSpaceOnUse" gradientTransform="translate(86.5 39.7915) rotate(90) scale(6.11765)">
<stop offset="0.375" stop-color="#FFF4EB"/>
<stop offset="1" stop-color="#FFF3EB" stop-opacity="0"/>
</radialGradient>
<linearGradient id="paint19_linear_2308_4743" x1="87" y1="115.909" x2="53.9077" y2="29.655" gradientUnits="userSpaceOnUse">
<stop stop-color="#E0B1CC"/>
<stop offset="0.430799" stop-color="#FFF1F1"/>
<stop offset="1" stop-color="#FFC9A5"/>
</linearGradient>
<linearGradient id="paint20_linear_2308_4743" x1="87" y1="70.4092" x2="117" y2="70.4092" gradientUnits="userSpaceOnUse">
<stop stop-color="#D16AE9"/>
<stop offset="1" stop-color="#FF661D"/>
</linearGradient>
<linearGradient id="paint21_linear_2308_4743" x1="34.0162" y1="49.9092" x2="106.486" y2="111.719" gradientUnits="userSpaceOnUse">
<stop stop-color="#FF661D"/>
<stop offset="0.5" stop-color="#CE3A00"/>
<stop offset="1" stop-color="#A60A5E"/>
</linearGradient>
<radialGradient id="paint22_radial_2308_4743" cx="0" cy="0" r="1" gradientUnits="userSpaceOnUse" gradientTransform="translate(32.5 105.556) rotate(90) scale(2.35294)">
<stop offset="0.375" stop-color="#F9DDD1"/>
<stop offset="1" stop-color="#FFF3EB" stop-opacity="0"/>
</radialGradient>
<radialGradient id="paint23_radial_2308_4743" cx="0" cy="0" r="1" gradientUnits="userSpaceOnUse" gradientTransform="translate(28.5 108.556) rotate(90) scale(2.35294)">
<stop offset="0.375" stop-color="#F9DDD1"/>
<stop offset="1" stop-color="#FFF3EB" stop-opacity="0"/>
</radialGradient>
<radialGradient id="paint24_radial_2308_4743" cx="0" cy="0" r="1" gradientUnits="userSpaceOnUse" gradientTransform="translate(31.5 108.556) rotate(90) scale(2.35294)">
<stop offset="0.375" stop-color="#F9DDD1"/>
<stop offset="1" stop-color="#FFF3EB" stop-opacity="0"/>
</radialGradient>
<radialGradient id="paint25_radial_2308_4743" cx="0" cy="0" r="1" gradientUnits="userSpaceOnUse" gradientTransform="translate(35.5 110.556) rotate(90) scale(2.35294)">
<stop offset="0.375" stop-color="#F9DDD1"/>
<stop offset="1" stop-color="#FFF3EB" stop-opacity="0"/>
</radialGradient>
<radialGradient id="paint26_radial_2308_4743" cx="0" cy="0" r="1" gradientUnits="userSpaceOnUse" gradientTransform="translate(115.5 109.556) rotate(90) scale(2.35294)">
<stop offset="0.375" stop-color="#F9DDD1"/>
<stop offset="1" stop-color="#FFF3EB" stop-opacity="0"/>
</radialGradient>
<radialGradient id="paint27_radial_2308_4743" cx="0" cy="0" r="1" gradientUnits="userSpaceOnUse" gradientTransform="translate(115 105.086) rotate(90) scale(2.82353)">
<stop offset="0.375" stop-color="#F9DDD1"/>
<stop offset="1" stop-color="#FFF3EB" stop-opacity="0"/>
</radialGradient>
<radialGradient id="paint28_radial_2308_4743" cx="0" cy="0" r="1" gradientUnits="userSpaceOnUse" gradientTransform="translate(110 105.086) rotate(90) scale(2.82353)">
<stop offset="0.375" stop-color="#F9DDD1"/>
<stop offset="1" stop-color="#FFF3EB" stop-opacity="0"/>
</radialGradient>
<radialGradient id="paint29_radial_2308_4743" cx="0" cy="0" r="1" gradientUnits="userSpaceOnUse" gradientTransform="translate(106.5 103.615) rotate(90) scale(3.29412)">
<stop offset="0.375" stop-color="#F9DDD1"/>
<stop offset="1" stop-color="#FFF3EB" stop-opacity="0"/>
</radialGradient>
<radialGradient id="paint30_radial_2308_4743" cx="0" cy="0" r="1" gradientUnits="userSpaceOnUse" gradientTransform="translate(34.5 107.615) rotate(90) scale(3.29412)">
<stop offset="0.375" stop-color="#F9DDD1"/>
<stop offset="1" stop-color="#FFF3EB" stop-opacity="0"/>
</radialGradient>
<radialGradient id="paint31_radial_2308_4743" cx="0" cy="0" r="1" gradientUnits="userSpaceOnUse" gradientTransform="translate(108 110.409) rotate(111.038) scale(6.96419)">
<stop stop-color="#FDF7F2"/>
<stop offset="1" stop-color="#FFD8BD"/>
</radialGradient>
</defs>
</svg>
