<svg width="140" height="121" viewBox="0 0 140 121" fill="none" xmlns="http://www.w3.org/2000/svg">
<g filter="url(#filter0_f_2174_43689)">
<path d="M134.96 108.78L49.4459 115.993C49.4459 115.993 37.5969 112.607 18.3078 101.83C-0.981187 91.0541 19.6856 86.4357 19.6856 86.4357L115.58 73.5042C115.58 73.5042 124.62 73.7834 130.188 85.3165C135.755 96.8495 134.96 108.78 134.96 108.78Z" fill="url(#paint0_linear_2174_43689)"/>
</g>
<g filter="url(#filter1_f_2174_43689)">
<path d="M42.7155 7V21.32C42.7155 29.1026 42.4649 33.4608 41.4623 37.1965C40.2092 41.866 38.6427 43.7339 33.3167 42.1773C29.0559 40.9321 14.1013 39.2718 7 38.4417C7.93988 29.4139 6.33107 23.5042 9.81965 20.0748C12.8263 17.1191 28.304 8.86782 42.7155 7Z" fill="url(#paint1_linear_2174_43689)" fill-opacity="0.5"/>
</g>
<path d="M29.5317 91.5429L34.4814 95.7079C34.4814 95.7079 34.9404 96.5843 33.6717 97.2103C33.1041 97.4858 32.8371 97.7195 31.8688 97.9949C30.9924 98.2453 30.0159 98.3205 28.4467 97.0267C26.8775 95.733 24.0312 92.5195 24.0312 92.5195L29.5401 91.5513L29.5317 91.5429Z" fill="#231026"/>
<path d="M29.9732 90.9173L34.1632 95.291C34.1632 95.291 34.9728 96.1674 34.1131 96.5848C33.5456 96.8602 33.2785 97.0939 32.3102 97.3694C31.4338 97.6198 30.4573 97.6949 28.8881 96.4012C27.3189 95.1074 24.4727 91.8939 24.4727 91.8939L29.9815 90.9257L29.9732 90.9173Z" fill="url(#paint2_linear_2174_43689)"/>
<path d="M112.25 81.268L118.102 84.9489C118.102 84.9489 118.561 85.8253 117.292 86.4513C116.724 86.7268 116.457 86.9605 115.489 87.2359C114.613 87.4863 113.636 87.5614 112.067 86.2677C110.498 84.974 106.75 82.2446 106.75 82.2446L112.259 81.2764L112.25 81.268Z" fill="#231026"/>
<path d="M112.684 80.6419L117.776 84.5315C117.776 84.5315 118.702 85.2243 117.726 85.8252C117.191 86.1591 116.891 86.3344 115.923 86.6098C115.046 86.8602 114.07 86.9354 112.5 85.6416C110.931 84.3479 107.184 81.6185 107.184 81.6185L112.692 80.6503L112.684 80.6419Z" fill="url(#paint3_linear_2174_43689)"/>
<path d="M116.806 78.9737L117.799 76.5281L21.0525 84.95C21.0525 84.95 15.9193 85.7846 16.3366 89.2485C16.5203 90.7927 21.3864 92.0447 21.3864 92.0447C22.8805 92.654 24.5331 92.7959 26.119 92.462C50.8253 88.0215 90.5558 83.3307 111.097 81.7281C113.743 81.5194 115.454 81.2523 116.806 78.9653V78.9737Z" fill="#231026"/>
<path d="M64.4559 14.5616C85.9655 13.3096 112.525 13.2679 118.117 16.5398L18.8411 91.6353C17.3386 91.869 16.095 90.7088 15.3271 88.6055C14.4924 86.3185 11.9884 67.2963 11.4375 54.5341C10.9284 42.6901 12.0635 26.197 12.4808 24.3941C13.3072 20.7966 15.1184 21.1639 17.9647 20.3042C22.6138 19.1941 44.7159 15.7135 64.4559 14.57V14.5616Z" fill="url(#paint4_linear_2174_43689)"/>
<path d="M16.6047 22.299C29.0079 19.4361 89.1712 12.3581 117.208 16.7484C117.984 16.8653 118.56 17.4913 118.635 18.2592C119.637 29.4772 120.797 54.267 118.66 78.0051C118.585 78.8815 117.859 79.5576 116.974 79.5826C104.638 79.9833 47.1621 84.8077 18.8666 91.051C17.8567 91.2764 16.8885 90.6003 16.7716 89.5903C14.9687 74.6664 11.4547 44.8853 15.361 23.6011C15.4779 22.9501 15.9703 22.4326 16.613 22.2823L16.6047 22.299Z" fill="#F26726" stroke="url(#paint5_linear_2174_43689)" stroke-width="1.1602"/>
<path d="M113.942 19.4528C88.518 15.5131 31.0842 22.1738 19.7243 24.778C18.8479 24.9783 18.1968 25.6711 18.0299 26.5558C14.5159 45.8368 17.8045 72.5881 19.4321 86.2016C19.5907 87.5537 20.9012 88.4552 22.2283 88.1631C47.6858 82.5707 102.374 77.955 113.625 77.5794C114.802 77.5377 115.77 76.6446 115.879 75.4677C117.79 54.05 116.755 31.7475 115.854 21.4977C115.762 20.4544 114.977 19.6197 113.942 19.4611V19.4528Z" fill="url(#paint6_radial_2174_43689)"/>
<path d="M110.155 22.2406C99.0118 21.7815 83.2699 21.1388 68.7633 22.0653C51.0932 23.1921 33.8239 25.6126 27.4052 26.7812C26.2617 26.9899 23.8245 28.4839 22.7895 33.2749C20.1519 46.0454 22.4556 68.7235 24.2835 80.4089C24.4922 81.7611 26.2033 82.6542 27.9394 82.3621C55.1581 77.738 99.1704 74.3158 110.055 74.0904C111.59 74.0571 112.867 73.164 113.001 71.9954C115.088 53.7578 113.994 33.517 112.984 24.3106C112.859 23.1754 111.649 22.2906 110.155 22.2406Z" fill="url(#paint7_linear_2174_43689)"/>
<path d="M109.326 21.9819C102.757 21.2641 84.8786 21.1806 68.3438 21.9151C46.4169 22.8834 28.4631 26.4307 26.9857 26.7729C24.4483 27.3656 23.0127 30.8461 22.5619 33.8426C20.7507 48.7749 22.1446 67.8639 23.9308 79.3657C24.3481 82.4873 27.2945 82.8463 28.9973 82.5541C57.1007 77.1454 98.801 74.1657 109.468 73.9486C111.755 74.0154 112.949 73.2308 113.074 72.079C115.119 54.1335 114.359 33.9428 113.374 24.8866C113.249 23.7681 112.256 22.4577 109.326 21.9819Z" fill="url(#paint8_radial_2174_43689)" fill-opacity="0.6"/>
<g filter="url(#filter2_ddddd_2174_43689)">
<path d="M111.47 22.3231C81.896 19.334 35.1676 24.5859 24.1484 27.1326C23.5264 27.2764 23.0608 27.772 22.9367 28.3982C19.3957 46.2759 21.6375 69.7648 24.053 81.3299C24.2302 82.1779 25.037 82.7328 25.8982 82.6385C68.4006 77.9847 94.8153 74.0349 111.227 73.8791C112.092 73.8708 112.825 73.2262 112.928 72.3672C115.613 49.9331 114.26 32.3825 112.944 23.7257C112.83 22.9702 112.231 22.3999 111.47 22.3231Z" fill="url(#paint9_linear_2174_43689)"/>
<path d="M111.47 22.3231C81.896 19.334 35.1676 24.5859 24.1484 27.1326C23.5264 27.2764 23.0608 27.772 22.9367 28.3982C19.3957 46.2759 21.6375 69.7648 24.053 81.3299C24.2302 82.1779 25.037 82.7328 25.8982 82.6385C68.4006 77.9847 94.8153 74.0349 111.227 73.8791C112.092 73.8708 112.825 73.2262 112.928 72.3672C115.613 49.9331 114.26 32.3825 112.944 23.7257C112.83 22.9702 112.231 22.3999 111.47 22.3231Z" fill="url(#paint10_radial_2174_43689)" fill-opacity="0.6"/>
</g>
<g opacity="0.7" filter="url(#filter3_f_2174_43689)">
<path d="M28.1896 76.3691C26.6288 72.0789 23.0647 62.3717 26.1864 37.4316" stroke="url(#paint11_linear_2174_43689)" stroke-width="2.32039" stroke-linecap="round"/>
</g>
<g opacity="0.3">
<g filter="url(#filter4_f_2174_43689)">
<path d="M93.0929 27.6992C84.5792 26.4055 44.8738 29.8444 26.4609 33.1497" stroke="url(#paint12_linear_2174_43689)" stroke-width="2.32039" stroke-linecap="round"/>
</g>
</g>
<g filter="url(#filter5_f_2174_43689)">
<path d="M33.748 31.1633C30.0003 32.215 28.9653 26.3055 28.3059 21.5812C28.3059 21.5812 27.8468 16.9989 27.6382 17.0072C27.4295 17.0072 27.7968 21.623 27.7968 21.623C28.2809 32.3986 25.1425 33.5755 20.7688 34.8108C20.7688 34.8108 19.4083 35.1447 19.4584 35.3283C19.5085 35.5119 22.7219 34.7607 22.7219 34.7607C25.2677 34.0429 28.3143 36.0127 28.5146 39.6769C28.5146 39.6769 29.0905 46.7049 29.2825 46.6548L29.3826 46.6298C29.5746 46.5797 29.3159 39.5601 29.3159 39.5601C29.174 37.5652 30.6597 32.5405 33.8815 31.6307C34.9833 31.3219 39.6074 29.8695 39.549 29.6442C39.4989 29.4605 33.7563 31.1716 33.7563 31.1716L33.748 31.1633Z" fill="url(#paint13_radial_2174_43689)"/>
</g>
<g filter="url(#filter6_f_2174_43689)">
<path d="M35.8746 34.427C35.8746 34.427 35.9163 36.7474 34.1719 37.4902C34.1719 37.4902 36.2419 37.5737 36.4338 40.036C36.4756 40.036 36.5173 37.4318 38.22 36.9226C38.22 36.9226 36.3838 36.8642 35.883 34.4186L35.8746 34.427Z" fill="url(#paint14_radial_2174_43689)"/>
</g>
<defs>
<filter id="filter0_f_2174_43689" x="5.15185" y="68.5779" width="134.774" height="52.3417" filterUnits="userSpaceOnUse" color-interpolation-filters="sRGB">
<feFlood flood-opacity="0" result="BackgroundImageFix"/>
<feBlend mode="normal" in="SourceGraphic" in2="BackgroundImageFix" result="shape"/>
<feGaussianBlur stdDeviation="2.46314" result="effect1_foregroundBlur_2174_43689"/>
</filter>
<filter id="filter1_f_2174_43689" x="5.76843" y="5.76843" width="38.178" height="38.1787" filterUnits="userSpaceOnUse" color-interpolation-filters="sRGB">
<feFlood flood-opacity="0" result="BackgroundImageFix"/>
<feBlend mode="normal" in="SourceGraphic" in2="BackgroundImageFix" result="shape"/>
<feGaussianBlur stdDeviation="0.615785" result="effect1_foregroundBlur_2174_43689"/>
</filter>
<filter id="filter2_ddddd_2174_43689" x="0.571493" y="0.902671" width="134.431" height="102.272" filterUnits="userSpaceOnUse" color-interpolation-filters="sRGB">
<feFlood flood-opacity="0" result="BackgroundImageFix"/>
<feColorMatrix in="SourceAlpha" type="matrix" values="0 0 0 0 0 0 0 0 0 0 0 0 0 0 0 0 0 0 127 0" result="hardAlpha"/>
<feOffset/>
<feGaussianBlur stdDeviation="10.2631"/>
<feComposite in2="hardAlpha" operator="out"/>
<feColorMatrix type="matrix" values="0 0 0 0 1 0 0 0 0 0.4 0 0 0 0 0.85098 0 0 0 1 0"/>
<feBlend mode="normal" in2="BackgroundImageFix" result="effect1_dropShadow_2174_43689"/>
<feColorMatrix in="SourceAlpha" type="matrix" values="0 0 0 0 0 0 0 0 0 0 0 0 0 0 0 0 0 0 127 0" result="hardAlpha"/>
<feOffset/>
<feGaussianBlur stdDeviation="10.2631"/>
<feComposite in2="hardAlpha" operator="out"/>
<feColorMatrix type="matrix" values="0 0 0 0 1 0 0 0 0 0.4 0 0 0 0 0.85098 0 0 0 1 0"/>
<feBlend mode="normal" in2="effect1_dropShadow_2174_43689" result="effect2_dropShadow_2174_43689"/>
<feColorMatrix in="SourceAlpha" type="matrix" values="0 0 0 0 0 0 0 0 0 0 0 0 0 0 0 0 0 0 127 0" result="hardAlpha"/>
<feOffset/>
<feGaussianBlur stdDeviation="10.2631"/>
<feComposite in2="hardAlpha" operator="out"/>
<feColorMatrix type="matrix" values="0 0 0 0 1 0 0 0 0 0.4 0 0 0 0 0.85098 0 0 0 1 0"/>
<feBlend mode="normal" in2="effect2_dropShadow_2174_43689" result="effect3_dropShadow_2174_43689"/>
<feColorMatrix in="SourceAlpha" type="matrix" values="0 0 0 0 0 0 0 0 0 0 0 0 0 0 0 0 0 0 127 0" result="hardAlpha"/>
<feOffset/>
<feGaussianBlur stdDeviation="5.13154"/>
<feComposite in2="hardAlpha" operator="out"/>
<feColorMatrix type="matrix" values="0 0 0 0 0.849744 0 0 0 0 0.208653 0 0 0 0 1 0 0 0 1 0"/>
<feBlend mode="normal" in2="effect3_dropShadow_2174_43689" result="effect4_dropShadow_2174_43689"/>
<feColorMatrix in="SourceAlpha" type="matrix" values="0 0 0 0 0 0 0 0 0 0 0 0 0 0 0 0 0 0 127 0" result="hardAlpha"/>
<feOffset/>
<feGaussianBlur stdDeviation="2.13814"/>
<feComposite in2="hardAlpha" operator="out"/>
<feColorMatrix type="matrix" values="0 0 0 0 1 0 0 0 0 0.4 0 0 0 0 0.113725 0 0 0 1 0"/>
<feBlend mode="normal" in2="effect4_dropShadow_2174_43689" result="effect5_dropShadow_2174_43689"/>
<feBlend mode="normal" in="SourceGraphic" in2="effect5_dropShadow_2174_43689" result="shape"/>
</filter>
<filter id="filter3_f_2174_43689" x="21.322" y="33.8082" width="10.4927" height="46.1846" filterUnits="userSpaceOnUse" color-interpolation-filters="sRGB">
<feFlood flood-opacity="0" result="BackgroundImageFix"/>
<feBlend mode="normal" in="SourceGraphic" in2="BackgroundImageFix" result="shape"/>
<feGaussianBlur stdDeviation="1.23157" result="effect1_foregroundBlur_2174_43689"/>
</filter>
<filter id="filter4_f_2174_43689" x="22.8376" y="23.7966" width="73.8794" height="12.9766" filterUnits="userSpaceOnUse" color-interpolation-filters="sRGB">
<feFlood flood-opacity="0" result="BackgroundImageFix"/>
<feBlend mode="normal" in="SourceGraphic" in2="BackgroundImageFix" result="shape"/>
<feGaussianBlur stdDeviation="1.23157" result="effect1_foregroundBlur_2174_43689"/>
</filter>
<filter id="filter5_f_2174_43689" x="17.6097" y="15.1598" width="23.7885" height="33.3426" filterUnits="userSpaceOnUse" color-interpolation-filters="sRGB">
<feFlood flood-opacity="0" result="BackgroundImageFix"/>
<feBlend mode="normal" in="SourceGraphic" in2="BackgroundImageFix" result="shape"/>
<feGaussianBlur stdDeviation="0.923677" result="effect1_foregroundBlur_2174_43689"/>
</filter>
<filter id="filter6_f_2174_43689" x="33.2482" y="33.495" width="5.89423" height="7.4647" filterUnits="userSpaceOnUse" color-interpolation-filters="sRGB">
<feFlood flood-opacity="0" result="BackgroundImageFix"/>
<feBlend mode="normal" in="SourceGraphic" in2="BackgroundImageFix" result="shape"/>
<feGaussianBlur stdDeviation="0.461839" result="effect1_foregroundBlur_2174_43689"/>
</filter>
<linearGradient id="paint0_linear_2174_43689" x1="75.3487" y1="76.5833" x2="79.3416" y2="101.485" gradientUnits="userSpaceOnUse">
<stop stop-color="#FD7327"/>
<stop offset="0.213542" stop-color="#F7665D" stop-opacity="0.786458"/>
<stop offset="1" stop-color="#F7945D" stop-opacity="0"/>
</linearGradient>
<linearGradient id="paint1_linear_2174_43689" x1="12.9526" y1="31.9043" x2="41.0795" y2="18.0655" gradientUnits="userSpaceOnUse">
<stop offset="0.203125" stop-color="#3E0B08"/>
<stop offset="0.412864" stop-color="#531B4B"/>
<stop offset="1" stop-color="#6B2B62" stop-opacity="0.29"/>
</linearGradient>
<linearGradient id="paint2_linear_2174_43689" x1="24.4643" y1="94.2143" x2="34.5054" y2="94.2143" gradientUnits="userSpaceOnUse">
<stop offset="0.02" stop-color="#F59292"/>
<stop offset="0.2" stop-color="#F59292"/>
<stop offset="0.35" stop-color="#F8C1D9"/>
<stop offset="0.49" stop-color="#F26726"/>
<stop offset="0.86" stop-color="#A61F61"/>
<stop offset="1" stop-color="#A61F61"/>
</linearGradient>
<linearGradient id="paint3_linear_2174_43689" x1="107.184" y1="83.7052" x2="118.176" y2="83.7052" gradientUnits="userSpaceOnUse">
<stop offset="0.02" stop-color="#F59292"/>
<stop offset="0.2" stop-color="#F59292"/>
<stop offset="0.35" stop-color="#F8C1D9"/>
<stop offset="0.49" stop-color="#F26726"/>
<stop offset="0.86" stop-color="#A61F61"/>
<stop offset="1" stop-color="#A61F61"/>
</linearGradient>
<linearGradient id="paint4_linear_2174_43689" x1="64.7147" y1="13.777" x2="64.7147" y2="91.6604" gradientUnits="userSpaceOnUse">
<stop stop-color="#F26726"/>
<stop offset="0.61" stop-color="#F59292"/>
<stop offset="0.84" stop-color="#F8C1D9"/>
<stop offset="1" stop-color="#DA72AD"/>
</linearGradient>
<linearGradient id="paint5_linear_2174_43689" x1="21.1787" y1="14.9038" x2="109.904" y2="89.3149" gradientUnits="userSpaceOnUse">
<stop stop-color="#F8C1D9"/>
<stop offset="1" stop-color="#DA72AD"/>
</linearGradient>
<radialGradient id="paint6_radial_2174_43689" cx="0" cy="0" r="1" gradientUnits="userSpaceOnUse" gradientTransform="translate(66.7164 53.1657) scale(63.8775 74.7367)">
<stop offset="0.45" stop-color="#DB569F"/>
<stop offset="0.89" stop-color="#5D2260"/>
</radialGradient>
<linearGradient id="paint7_linear_2174_43689" x1="67.8952" y1="21.5895" x2="67.8952" y2="82.938" gradientUnits="userSpaceOnUse">
<stop offset="0.44" stop-color="#7D2987"/>
<stop offset="0.79" stop-color="#9D4D9E"/>
</linearGradient>
<radialGradient id="paint8_radial_2174_43689" cx="0" cy="0" r="1" gradientUnits="userSpaceOnUse" gradientTransform="translate(-1494.87 6571.56) rotate(103.64) scale(42.2391 65.5073)">
<stop offset="0.79" stop-color="#42174C" stop-opacity="0"/>
<stop offset="1" stop-color="#42174C"/>
</radialGradient>
<linearGradient id="paint9_linear_2174_43689" x1="69.1649" y1="21.8457" x2="68.2617" y2="80.3383" gradientUnits="userSpaceOnUse">
<stop offset="0.442271" stop-color="#7D2889"/>
<stop offset="0.791237" stop-color="#B934CC"/>
</linearGradient>
<radialGradient id="paint10_radial_2174_43689" cx="0" cy="0" r="1" gradientUnits="userSpaceOnUse" gradientTransform="translate(81.398 58.4178) rotate(109.741) scale(36.2931 75.1197)">
<stop offset="0.888521" stop-color="#42154C" stop-opacity="0"/>
<stop offset="1" stop-color="#42154C"/>
</radialGradient>
<linearGradient id="paint11_linear_2174_43689" x1="28.198" y1="36.3883" x2="25.8108" y2="77.0619" gradientUnits="userSpaceOnUse">
<stop stop-color="#9C53A0" stop-opacity="0.44"/>
<stop offset="0.46" stop-color="#F8C1D9"/>
<stop offset="1" stop-color="#DA72AD" stop-opacity="0.36"/>
</linearGradient>
<linearGradient id="paint12_linear_2174_43689" x1="25.2924" y1="33.0996" x2="93.7022" y2="26.7644" gradientUnits="userSpaceOnUse">
<stop stop-color="#9C53A0" stop-opacity="0.44"/>
<stop offset="0.46" stop-color="#F8C1D9"/>
<stop offset="1" stop-color="#DA72AD" stop-opacity="0.36"/>
</linearGradient>
<radialGradient id="paint13_radial_2174_43689" cx="0" cy="0" r="1" gradientUnits="userSpaceOnUse" gradientTransform="translate(29.6239 33.0154) rotate(74.3) scale(14.4899 10.4334)">
<stop stop-color="#FDEDF4"/>
<stop offset="1" stop-color="white"/>
</radialGradient>
<radialGradient id="paint14_radial_2174_43689" cx="0" cy="0" r="1" gradientUnits="userSpaceOnUse" gradientTransform="translate(36.1906 37.2289) rotate(-4.42) scale(2.46228)">
<stop stop-color="#FDEDF4"/>
<stop offset="1" stop-color="white"/>
</radialGradient>
</defs>
</svg>
